<svg id="Layer_1" data-name="Layer 1" xmlns="http://www.w3.org/2000/svg" viewBox="0 0 219.43 119.48"><title>icon-spearFish</title><path d="M220.53,64.46c.05-.32-1.51-1.4-2-1.23-1,.33-1.87,1.35-2.81,2a81.51,81.51,0,0,1-7.58,5.48c-10,5.68-20.3,4.27-30.48.65-5.48-2-10.7-4.53-16.06-6.72-2.64-1.09-4.19-.18-3.89,2.6s.79,5.92,2.24,8.23c2.94,4.86,6.63,9.17,9.86,13.83,4.1,5.88,6.27,11.94.92,18.44,7.34,2.75,9.18,7.27,5.2,13,7.45,0,19.81-5.34,26.85-12.07C215.36,96.66,218.34,80.67,220.53,64.46Z" transform="translate(-1.1 -39)" style="fill:#fff"/><path d="M159.14,134.88A2.06,2.06,0,0,0,158,134a4.09,4.09,0,0,0-2.07.5A177.23,177.23,0,0,1,138.37,141a93.83,93.83,0,0,1-9.94,2.13l-3.32.54c3.35,4.93,8.72,8.6,14,9.45a11.72,11.72,0,0,0,4.83-.14c7.47-1.69,16.5-8.93,17.91-16.16l-.54-.25A13.12,13.12,0,0,1,159.14,134.88Z" transform="translate(-1.1 -39)" style="fill:#fff"/><path d="M113.66,79c3.59-3.81,6.9-7.42,10.29-11,5.7-6.12,11.4-12.24,17-18.47,1.61-1.81,2.58-4.22,3.84-6.41-.45-.24-.43-.4-.89-.64C133,53.79,122.26,65.14,111.31,76.62,112.4,77.54,112.79,78.19,113.66,79Z" transform="translate(-1.1 -39)" style="fill:#fff"/><path d="M143.06,41.25c-4-.07-25.3,19.44-35,31.62.61.84,1.22,1.68,2.11,2.82C121.09,64.13,132,52.8,143.06,41.25Z" transform="translate(-1.1 -39)" style="fill:#fff"/><path d="M72.52,115c2.19-2.29,4.3-4.6,6.6-7,.8-.86,1.7-1.79,2.51-2.74a7.86,7.86,0,0,0-1.36-.3,4.76,4.76,0,0,0-4.56,1.58C60.59,121.78,60.94,120.85,46,135.83l-6.26,5.89-5.31,5.2-4.62,4.55.59.43A23.45,23.45,0,0,1,33,153.82a3.56,3.56,0,0,0,1.44.81c.41.06.92,0,2-1.17,15.24-16,3.1-3.86,18.12-19.57Z" transform="translate(-1.1 -39)" style="fill:#fff"/><path d="M83.81,107.13l-46.7,49.58,2.78,1.77.28-.2,14.08-15.46C71,125,66.52,129.19,83.29,111.35,84.87,109.79,85,108.56,83.81,107.13Z" transform="translate(-1.1 -39)" style="fill:#fff"/><path d="M123.45,99.43c0-.25-.18-.44-.22-.69a83,83,0,0,0-14.11-21.39c-2.88-3.2-5.51-4.86-8.66-5.37-.64-.1-1.3-.12-2-.16a54.18,54.18,0,0,0-6.23.16c-3.53.34-7,.78-10.64,1.27l-2.79.38,33.09,30Z" transform="translate(-1.1 -39)" style="fill:#fff"/><path d="M39.46,117.3c2.63-9.67.51-17-6.66-23.42-2.8,3-5.28,7.1-3.79,11.73C30.47,110.4,33.77,114.07,39.46,117.3Z" transform="translate(-1.1 -39)" style="fill:#fff"/><path d="M24.14,57.65c.29-2.36,3.52-4.4,6.33-3.87a5.72,5.72,0,0,1,4.27,3.47,5.74,5.74,0,0,0-4.34-3.56c-2.73-.53-6,1.43-6.32,3.78a3.69,3.69,0,0,0,.22,1.74A3.46,3.46,0,0,1,24.14,57.65Z" transform="translate(-1.1 -39)" style="fill:#fff"/><path d="M29,62.64a5.91,5.91,0,0,1-4.66-3.43A5.67,5.67,0,0,0,29,62.74c3,.4,5.65-1.16,6-3.68a4,4,0,0,0-.26-1.81A3.86,3.86,0,0,1,34.93,59C34.61,61.48,32,63.12,29,62.64Z" transform="translate(-1.1 -39)" style="fill:#fff"/><path d="M16.12,84.37a9.44,9.44,0,0,1-2.75-1A9,9,0,0,0,16.12,84.37Z" transform="translate(-1.1 -39)" style="fill:#fff"/><path d="M176.05,115.67c-.37-2.88-2.13-4.81-4.82-6.07-2.92-1.38-4.67.74-6.74,1.73-8,3.93-16.4,6.8-25.42,6.26a43.38,43.38,0,0,1-25.41-9.8c-7.75-6.37-15.18-13.2-22.7-20C75.7,74.13,60,60.85,41.74,51.12A110,110,0,0,0,6.9,39.23c-4.12-.66-5,0-5.55,4.16a17.05,17.05,0,0,0-.25,2C1.36,63.92,7.69,80.16,19,94.65c2,2.55,4.27,4.82,6,6.67,2.06-3.56,4-7,6-10.29,1-1.57,1.95-1.34,3.25-.14C42,98,45,106.68,43.06,117.05l11.48,7.39c6.68-6.54,13.25-12.93,19.74-19.34,2.75-2.7,4.9-3.18,8.32-1.8,4.51,1.8,5.45,6.25,2.15,9.78l-5.59,6c-3.69,3.88-7.29,7.77-11.66,12.28,8.52,2.61,16.1,5.4,23.93,7.16a105,105,0,0,0,41.45,1.11,84.27,84.27,0,0,0,39.85-18.26C174.65,119.75,176.45,118.3,176.05,115.67ZM30.4,53.69a5.74,5.74,0,0,1,4.34,3.56A4,4,0,0,1,35,59.06c-.32,2.52-3,4.08-6,3.68A5.66,5.66,0,0,1,24.3,59.2a3.64,3.64,0,0,1-.22-1.73C24.38,55.12,27.67,53.16,30.4,53.69Zm-6.14,30c-2.63.51-5.39,1.22-8.15.71a9.1,9.1,0,0,1-2.74-1c16-3.23,28.29-10.69,32.8-27.92L53.56,60C48.51,73.9,38.16,81.09,24.26,83.66Z" transform="translate(-1.1 -39)" style="fill:#fff"/><path d="M24.26,83.66c-2.62.5-5.41,1.21-8.14.71C18.87,84.89,21.63,84.16,24.26,83.66Z" transform="translate(-1.1 -39)" style="fill:#fff"/></svg>