<svg id="Layer_1" data-name="Layer 1" xmlns="http://www.w3.org/2000/svg" viewBox="0 0 113.37 100"><title>icon-swamping-dark</title><path d="M45.5,88.33c1,.63,1,.63,1.66.63s.71,0,1.65-.63a7.94,7.94,0,0,1,.87-.55h-5A7.94,7.94,0,0,1,45.5,88.33Z" style="fill:#403f3f"/><path d="M56.86,46.14l-27,41.64h.08l27-41.58Z" style="fill:#403f3f"/><path d="M42.81,86.81a12.1,12.1,0,0,0-5.1-1A13.13,13.13,0,0,1,42.81,86.81Z" style="fill:#403f3f"/><polygon points="30.84 87.78 30.84 87.77 30.84 87.78 30.84 87.78" style="fill:#403f3f"/><path d="M75.47,85.83a13.11,13.11,0,0,1,6.86,2h.08A13.21,13.21,0,0,0,75.47,85.83Z" style="fill:#403f3f"/><path d="M64.35,88.33c1,.63,1,.63,1.66.63s.71,0,1.65-.63a7.94,7.94,0,0,1,.87-.55h-5A6.52,6.52,0,0,1,64.35,88.33Z" style="fill:#403f3f"/><path d="M103.81,97.24A9.55,9.55,0,0,1,98,95.35a5.91,5.91,0,0,0-7.26,0,9.83,9.83,0,0,1-11.59,0,5.91,5.91,0,0,0-7.26,0,9.83,9.83,0,0,1-11.59,0,5.91,5.91,0,0,0-7.26,0,9.83,9.83,0,0,1-11.59,0,5.91,5.91,0,0,0-7.26,0,9,9,0,0,1-5.83,1.89,9.6,9.6,0,0,1-5.84-1.89,5.84,5.84,0,0,0-7.25,0,9,9,0,0,1-5.76,1.89,9.6,9.6,0,0,1-5.84-1.89A5.48,5.48,0,0,0,0,94.09v2.76c.71,0,.71,0,1.65.63A13.21,13.21,0,0,0,9.49,100a13.37,13.37,0,0,0,7.81-2.52c.94-.63.94-.63,1.65-.63s.71,0,1.66.63a13.51,13.51,0,0,0,15.61,0c1-.63,1-.63,1.66-.63s.71,0,1.66.63a13.39,13.39,0,0,0,15.53,0c1-.63,1-.63,1.66-.63s.71,0,1.66.63a13.39,13.39,0,0,0,15.53,0c1-.63,1-.63,1.66-.63s.71,0,1.65.63a13.4,13.4,0,0,0,15.54,0c1-.63,1-.63,1.66-.63s.71,0,1.65.63a13.53,13.53,0,0,0,15.62,0c.94-.63.94-.63,1.65-.63V94.09a5.48,5.48,0,0,0-3.62,1.26A9.49,9.49,0,0,1,103.81,97.24Z" style="fill:#403f3f"/><path d="M105.44,88.33l-.08.08a5.48,5.48,0,0,1-2.45-1.74C88.64,64.83,74.52,42.74,60.25,20.9c-1.42-2.13-1.26-3.63.16-5.6,3.07-4.42,5.83-8.91,8.83-13.41L67,0c-3.47,4.81-6.39,10-10.17,15.22C53.47,10,50.39,5.22,47.31.39L45.81.32c0,1-.4,2.28.08,3.07,2.28,3.94,4.73,7.89,7.33,11.67,1.58,2.21,1.34,3.71-.08,5.92C40,41.09,26.81,61.2,13.88,81.47c-1.82,2.91-3.63,5.44-6.08,6.94v-.08A13.1,13.1,0,0,0,0,85.8v4.34A9.32,9.32,0,0,1,5.75,92,5.69,5.69,0,0,0,9.46,93.3,5.48,5.48,0,0,0,13.09,92a9,9,0,0,1,5.83-1.89A9.59,9.59,0,0,1,24.81,92a5.9,5.9,0,0,0,7.25,0,9.84,9.84,0,0,1,11.6,0,5.9,5.9,0,0,0,7.25,0,9.84,9.84,0,0,1,11.6,0,5.9,5.9,0,0,0,7.25,0,10,10,0,0,1,11.67,0,5.91,5.91,0,0,0,7.26,0,9.83,9.83,0,0,1,11.59,0,5.91,5.91,0,0,0,7.26,0,9,9,0,0,1,5.83-1.89V85.8A13.19,13.19,0,0,0,105.44,88.33Zm-21.69-.55H82.33a13,13,0,0,0-13.72,0h-.08a7.94,7.94,0,0,0-.87.55c-.94.63-.94.63-1.65.63s-.71,0-1.66-.63a7.94,7.94,0,0,0-.87-.55A13.19,13.19,0,0,0,58.37,86a11.88,11.88,0,0,0-1.79-.13,13.16,13.16,0,0,0-6.9,2,7.94,7.94,0,0,0-.87.55c-.94.63-.94.63-1.65.63s-.71,0-1.66-.63a7.94,7.94,0,0,0-.87-.55h0a12.57,12.57,0,0,0-1.84-1,13.13,13.13,0,0,0-5.1-1,12.42,12.42,0,0,0-6.85,2h-1L56.86,46.14v0c9.22,14.19,17.82,27.52,27,41.64Z" style="fill:#403f3f"/><path d="M56.9,46.2c9.21,14.17,17.71,27.48,26.85,41.58h.06C74.68,73.66,66.08,60.33,56.94,46.14Z" style="fill:#403f3f"/><path d="M58.37,86a11.88,11.88,0,0,0-1.79-.13A11.88,11.88,0,0,1,58.37,86Z" style="fill:#403f3f"/><path d="M68.53,87.78h.08a13.11,13.11,0,0,1,6.86-2A13.21,13.21,0,0,0,68.53,87.78Z" style="fill:#403f3f"/><path d="M37.69,85.8a11.91,11.91,0,0,0-6.85,2A12.42,12.42,0,0,1,37.69,85.8Z" style="fill:#403f3f"/><path d="M44.63,87.78h0a9.93,9.93,0,0,0-1.84-1A12.57,12.57,0,0,1,44.63,87.78Z" style="fill:#403f3f"/></svg>