<svg id="Layer_1" data-name="Layer 1" xmlns="http://www.w3.org/2000/svg" viewBox="0 0 138.75 101"><title>icon-kayak-dark</title><g id="Group_84" data-name="Group 84"><path id="Path_229" data-name="Path 229" d="M142.36,55.87C116.59,39.71,90,30.57,58.9,34.24c2.25,2.47,3.93,4.18,5.45,6,2.7,3.27,5.68,5,10.35,4.84,7.06-.26,14.1,1,20.15,5.17,5,3.42,5,8,0,11.46-1.72,1.19-3.63,2.08-6.43,3.65C93,68.3,97,70.86,101,73.21a4.81,4.81,0,0,0,3.42.54A133.77,133.77,0,0,0,142.36,55.87Zm-84.92-9c-3.58-2.47-6.58-4.44-9.47-6.57a9.33,9.33,0,0,0-10.22-1c-9.31,4.32-18.68,8.51-28,12.88a56.62,56.62,0,0,0-6.16,4C29.3,72.24,56,81.34,87.1,77.73c-5.26-5-7.78-12-16.12-10.77a12.55,12.55,0,0,1-4.84-.37c-4.56-1.2-9.33-2-13.51-4.05-7.05-3.44-7-9.17-.24-13.12C53.67,48.67,55,48.07,57.44,46.85ZM22.56,13.27c.8,1.37,1.81,4.56,3.94,6.51,5.79,5.27,11.56,10.87,18.25,14.74A99.48,99.48,0,0,1,66.2,51.67c6,6.1,12.18,12,18,18.22,2.91,3.13,5.16,6.88,7.74,10.33,5.34,7.13,10.54,14.37,16.18,21.26a15.83,15.83,0,0,0,7,4.55c5.49,1.82,9.67-2.36,7.89-7.87a16,16,0,0,0-4.24-6.76c-5.34-4.77-10.53-10.09-16.73-13.41-10.29-5.52-18.14-13.58-26.17-21.6-4.8-4.79-9.71-9.47-14.27-14.47-2.79-3.07-5-6.67-7.5-10C48.78,24.78,43.6,17.52,38,10.61A16.66,16.66,0,0,0,31,6C26.34,4.23,22.56,7,22.56,13.27Z" transform="translate(-3.62 -5.46)" style="fill:#403f3f"/><path id="Path_230" data-name="Path 230" d="M142.36,55.87a133.64,133.64,0,0,1-37.94,17.88,4.83,4.83,0,0,1-3.41-.54c-4-2.36-8-4.92-12.62-7.84,2.79-1.57,4.71-2.46,6.42-3.65,5-3.44,5-8,0-11.46-6.06-4.14-13.09-5.43-20.15-5.17-4.68.17-7.65-1.57-10.36-4.84-1.52-1.83-3.19-3.54-5.45-6C90,30.57,116.59,39.71,142.36,55.87Z" transform="translate(-3.62 -5.46)" style="fill:#403f3f"/><path id="Path_231" data-name="Path 231" d="M57.43,46.85c-2.4,1.22-3.76,1.82-5,2.57-6.72,3.95-6.81,9.68.24,13.12,4.17,2,8.95,2.85,13.5,4.05A12.61,12.61,0,0,0,71,67c8.34-1.19,10.86,5.79,16.12,10.77C56,81.34,29.3,72.24,3.62,56.08a56.54,56.54,0,0,1,6.16-3.95c9.29-4.37,18.66-8.57,28-12.89a9.35,9.35,0,0,1,10.21,1C50.86,42.41,53.86,44.38,57.43,46.85Z" transform="translate(-3.62 -5.46)" style="fill:#403f3f"/><path id="Path_232" data-name="Path 232" d="M22.56,13.27c0-6.28,3.78-9,8.45-7.3a16.83,16.83,0,0,1,7,4.63c5.61,6.91,10.79,14.17,16.12,21.31,2.5,3.34,4.71,6.94,7.5,10,4.56,5,9.47,9.68,14.27,14.47,8,8,15.88,16.08,26.17,21.6,6.2,3.32,11.4,8.64,16.73,13.41A15.92,15.92,0,0,1,123,98.16c1.77,5.51-2.41,9.69-7.9,7.86a15.73,15.73,0,0,1-7-4.54c-5.63-6.89-10.83-14.14-16.18-21.26-2.58-3.45-4.83-7.2-7.74-10.33-5.81-6.25-12-12.12-18-18.22A99.48,99.48,0,0,0,44.75,34.52c-6.69-3.87-12.46-9.47-18.24-14.74C24.37,17.83,23.36,14.64,22.56,13.27Z" transform="translate(-3.62 -5.46)" style="fill:#403f3f"/></g></svg>