<svg id="Layer_1" data-name="Layer 1" xmlns="http://www.w3.org/2000/svg" viewBox="0 0 113.33 100"><title>icon-swamping</title><path d="M60.69,101.73c1,.63,1,.63,1.66.63s.71,0,1.65-.63a7.7,7.7,0,0,1,.87-.55H59.82A6.89,6.89,0,0,1,60.69,101.73Z" transform="translate(-15.19 -13.4)" style="fill:#fff"/><path d="M72.05,59.54,45,101.18h.08l27-41.58Z" transform="translate(-15.19 -13.4)" style="fill:#fff"/><path d="M58,100.21a12,12,0,0,0-5.1-1A13.11,13.11,0,0,1,58,100.21Z" transform="translate(-15.19 -13.4)" style="fill:#fff"/><polygon points="30.84 87.78 30.84 87.77 30.84 87.78 30.84 87.78" style="fill:#fff"/><path d="M90.66,99.23a13.1,13.1,0,0,1,6.86,2h.08A13.17,13.17,0,0,0,90.66,99.23Z" transform="translate(-15.19 -13.4)" style="fill:#fff"/><path d="M79.54,101.73c.95.63.95.63,1.66.63s.71,0,1.65-.63a6.89,6.89,0,0,1,.87-.55h-5A6.89,6.89,0,0,1,79.54,101.73Z" transform="translate(-15.19 -13.4)" style="fill:#fff"/><path d="M119,110.64a9.55,9.55,0,0,1-5.83-1.89,5.91,5.91,0,0,0-7.26,0,9.83,9.83,0,0,1-11.59,0,5.91,5.91,0,0,0-7.26,0,9.83,9.83,0,0,1-11.59,0,5.91,5.91,0,0,0-7.26,0,9.83,9.83,0,0,1-11.59,0,5.91,5.91,0,0,0-7.26,0,9.07,9.07,0,0,1-5.83,1.89,9.6,9.6,0,0,1-5.84-1.89,5.84,5.84,0,0,0-7.25,0,9,9,0,0,1-5.76,1.89,9.6,9.6,0,0,1-5.84-1.89,5.46,5.46,0,0,0-3.62-1.26v2.76c.71,0,.71,0,1.65.63a13.23,13.23,0,0,0,7.81,2.52,13.41,13.41,0,0,0,7.81-2.52c.94-.63.94-.63,1.65-.63s.71,0,1.66.63a13.51,13.51,0,0,0,15.61,0c.95-.63.95-.63,1.66-.63s.71,0,1.66.63a13.39,13.39,0,0,0,15.53,0c1-.63,1-.63,1.66-.63s.71,0,1.66.63a13.39,13.39,0,0,0,15.53,0c1-.63,1-.63,1.66-.63s.71,0,1.65.63a13.4,13.4,0,0,0,15.54,0c.95-.63.95-.63,1.66-.63s.71,0,1.65.63a13.53,13.53,0,0,0,15.62,0c.94-.63.94-.63,1.65-.63v-2.76a5.46,5.46,0,0,0-3.62,1.26A9.49,9.49,0,0,1,119,110.64Z" transform="translate(-15.19 -13.4)" style="fill:#fff"/><path d="M120.63,101.73l-.08.08a5.4,5.4,0,0,1-2.45-1.74C103.83,78.23,89.71,56.14,75.44,34.3c-1.42-2.13-1.26-3.63.16-5.6,3.07-4.42,5.83-8.91,8.83-13.41L82.14,13.4c-3.47,4.81-6.39,10-10.17,15.22-3.31-5.2-6.39-10-9.47-14.83L61,13.72c0,1-.4,2.28.08,3.07,2.28,3.94,4.73,7.89,7.33,11.67,1.58,2.21,1.34,3.71-.08,5.92C55.17,54.49,42,74.6,29.07,94.87c-1.82,2.91-3.63,5.44-6.08,6.94v-.08a13.12,13.12,0,0,0-7.8-2.53v4.34a9.32,9.32,0,0,1,5.75,1.89,5.72,5.72,0,0,0,3.71,1.27,5.51,5.51,0,0,0,3.63-1.27,9.07,9.07,0,0,1,5.83-1.89A9.6,9.6,0,0,1,40,105.43a5.9,5.9,0,0,0,7.25,0,9.84,9.84,0,0,1,11.6,0,5.9,5.9,0,0,0,7.25,0,9.84,9.84,0,0,1,11.6,0,5.9,5.9,0,0,0,7.25,0,10,10,0,0,1,11.67,0,5.91,5.91,0,0,0,7.26,0,9.83,9.83,0,0,1,11.59,0,5.91,5.91,0,0,0,7.26,0,9.07,9.07,0,0,1,5.83-1.89V99.2A13.21,13.21,0,0,0,120.63,101.73Zm-21.69-.55H97.52a13,13,0,0,0-13.72,0h-.08a6.89,6.89,0,0,0-.87.55c-.94.63-.94.63-1.65.63s-.71,0-1.66-.63a6.89,6.89,0,0,0-.87-.55,13.16,13.16,0,0,0-5.11-1.83,12,12,0,0,0-1.79-.13,13.16,13.16,0,0,0-6.9,2,7.7,7.7,0,0,0-.87.55c-.94.63-.94.63-1.65.63s-.71,0-1.66-.63a6.89,6.89,0,0,0-.87-.55h0a12.46,12.46,0,0,0-1.84-1,13.11,13.11,0,0,0-5.1-1,12.4,12.4,0,0,0-6.85,2H45L72.05,59.54l0,.06,0-.06C81.27,73.73,89.87,87.06,99,101.18Z" transform="translate(-15.19 -13.4)" style="fill:#fff"/><path d="M72.09,59.6C81.3,73.77,89.8,87.08,98.94,101.18H99C89.87,87.06,81.27,73.73,72.13,59.54Z" transform="translate(-15.19 -13.4)" style="fill:#fff"/><path d="M73.56,99.35a12,12,0,0,0-1.79-.13A12,12,0,0,1,73.56,99.35Z" transform="translate(-15.19 -13.4)" style="fill:#fff"/><path d="M83.72,101.18h.08a13.1,13.1,0,0,1,6.86-2A13.17,13.17,0,0,0,83.72,101.18Z" transform="translate(-15.19 -13.4)" style="fill:#fff"/><path d="M52.88,99.2a11.85,11.85,0,0,0-6.85,2A12.4,12.4,0,0,1,52.88,99.2Z" transform="translate(-15.19 -13.4)" style="fill:#fff"/><path d="M59.82,101.18h0a10.11,10.11,0,0,0-1.84-1A12.46,12.46,0,0,1,59.82,101.18Z" transform="translate(-15.19 -13.4)" style="fill:#fff"/></svg>