<svg id="Layer_1" data-name="Layer 1" xmlns="http://www.w3.org/2000/svg" viewBox="0 0 98.64 100.01"><title>icon-freedive-dark</title><g id="icons"><path d="M49.32,37.17A47.76,47.76,0,0,0,95.52,1.48a26.54,26.54,0,0,1-9.47,1.88h-.16a16.39,16.39,0,0,1-2-.08,9.39,9.39,0,0,1-1.48-.2,50,50,0,0,0-8-.8c-4.52,0-7.79,1.08-12.59,4.07A11.45,11.45,0,0,1,60.58,7c-.2.08-.44.2-.68.28a12.37,12.37,0,0,1-1.44.52,24.43,24.43,0,0,1-4.79,1,6,6,0,0,1-.84.08,33.77,33.77,0,0,1-3.48.16,33.26,33.26,0,0,1-3.46-.17,3,3,0,0,1-.84-.08,24.43,24.43,0,0,1-4.79-1,15.27,15.27,0,0,1-1.44-.52c-.24-.08-.44-.2-.68-.28a7.14,7.14,0,0,1-1.25-.67C33.17,4,30.54,2.88,27.46,2.44l-1.2-.12c-.6,0-1.24-.08-1.92-.08h-.08a61,61,0,0,0-7,.68l-1,.16a23.84,23.84,0,0,1-2.92.28H11.89a16.19,16.19,0,0,1-2-.16A7.68,7.68,0,0,1,8.61,3,28.1,28.1,0,0,1,3.14,1.48,47.87,47.87,0,0,0,49.32,37.17Z" style="fill:#403f3f"/><path d="M38.21,49.4c-.12-2.68,0-7.39,1.68-9.51A50.39,50.39,0,0,1,0,0,230.66,230.66,0,0,0,2,26.78C4.08,42.61,15.79,54.78,24.22,60a29,29,0,0,1,11,12.23,32.11,32.11,0,0,1,1.67-11.67v-.16A38.93,38.93,0,0,0,38.21,49.4Z" style="fill:#403f3f"/><path d="M51.36,50.84c.08-5.12.64-8.39,1.8-10.23h-.44c-.72,0-1.4.08-2.12.08H48.08a16.39,16.39,0,0,1-2-.08h-.52c1.16,1.84,1.72,5.11,1.8,10.23a38.45,38.45,0,0,0,1.4,9.47c.2.84.4,1.68.64,2.6.2-.92.4-1.8.64-2.6A39.83,39.83,0,0,0,51.36,50.84Z" style="fill:#403f3f"/><path d="M58.79,39.9c1.72,2.12,1.8,6.83,1.68,9.51a37.79,37.79,0,0,0,1.24,11h0a32.57,32.57,0,0,1,1.72,11.75,28.54,28.54,0,0,1,11-12.23c8.46-5.13,20.13-17.32,22.21-33.15A239.82,239.82,0,0,0,98.64,0,50.43,50.43,0,0,1,58.79,39.9Z" style="fill:#403f3f"/><path d="M48.56,73.5c-.32-11-3.08-13.27-3.24-22.14-.16-10.19-2.23-10.15-3.23-10.15S40,44.12,40.21,49.76a39.87,39.87,0,0,1-1.32,11.71h0a29.66,29.66,0,0,0-1.56,12c.44,5.64.76,7.2.76,8.59a17.05,17.05,0,0,1-.48,3.48c-1.4,7.6-.12,14.43,5.67,14.43,4.32,0,6-3.44,6.08-7.83a27.7,27.7,0,0,0-.24-3.64C48,81.1,48.72,78.9,48.56,73.5ZM43.24,98.28c-3.75,0-4.39-3.6-4.39-8s2-8,4.39-8,4.4,3.6,4.4,8S47,98.28,43.24,98.28Z" style="fill:#403f3f"/><path d="M60.63,82.09c0-1.39.32-3,.76-8.59a30.39,30.39,0,0,0-1.56-12h0a39.8,39.8,0,0,1-1.36-11.7c.24-5.68-.84-8.55-1.88-8.55s-3.07,0-3.23,10.15c-.16,8.87-2.88,11.11-3.24,22.14-.16,5.36.6,7.6-.52,15a18.92,18.92,0,0,0-.24,3.68c.08,4.35,1.76,7.79,6.08,7.79,5.79,0,7.07-6.79,5.67-14.43A17.05,17.05,0,0,1,60.63,82.09ZM55.4,98.28c-3.76,0-4.4-3.6-4.4-8s2-8,4.4-8,4.39,3.6,4.39,8S59.15,98.28,55.4,98.28Z" style="fill:#403f3f"/></g></svg>