<svg id="Layer_1" data-name="Layer 1" xmlns="http://www.w3.org/2000/svg" viewBox="0 0 549.57 110.09"><title>icon-globe</title><path d="M-149.19,72.42q2,1.5,0,3Z" transform="translate(149.19 -8.41)" style="fill:#e5e5e5"/><path d="M10.36,68.79a30.22,30.22,0,0,1,7.8-16.87c1.19-1.26,1.94-1.43,3,.16,1.43,2.18,3.21,4.15,4.57,6.38,1.58,2.57,2.55,1.77,3.86-.21,2.22-3.36,4.61-6.61,7-9.88.5-.7,1-1.76,2.11-1.21.9.43.78,1.27.47,2.11C38.51,51.1,39.8,51.08,41,51a9.55,9.55,0,0,1,5.82,1.23c1.13.72,1.38,1.43.34,2.37a25.22,25.22,0,0,1-2.31,1.94c-4.36,3.08-8.75,6.13-13.12,9.2a5.81,5.81,0,0,1-3.39,1.1c-2.27,0-2.6,1.28-1.54,3A14.71,14.71,0,0,1,28.5,73.7c.42,1.56,1.29,1.81,2.74,1.27,4.21-1.59,8.17-.26,11.33,2.21a95.54,95.54,0,0,0,9.75,7.1,2.89,2.89,0,0,1,1.47,3.8c0,.07-.07.13-.1.2-1.22,3.07-2.11,6.15-5.19,8.21-2.88,1.93-3.81,5.43-4.66,8.59-.6,2.25-1.32,1.9-2.91,1.2-3.75-1.68-5.18-4.87-5.64-8.57C35,95.16,34.29,93,32,91.58c-1.58-1-1.79-2.88-2.18-4.52-.55-2.34-.87-4.74-1.31-7.11a4.22,4.22,0,0,0-2.06-3.21c-3.25-1.67-5.55-4.3-7.64-7.19-.33-.47-.81-1.16-1.22-1.16-.84,0-1,.94-1.12,1.58-1.8,8.4,0,16.27,4,23.59a35.51,35.51,0,0,0,26.62,18.53c10.5,1.63,20.08-1.32,28.26-8.07A34.58,34.58,0,0,0,87.88,82.84c.17-1,.63-2.3-.24-2.83-1.09-.65-1.63.81-2.34,1.41a5.17,5.17,0,0,0-2.11,3.88c-.12,5.82-4.18,9.37-7.77,13.12A2.33,2.33,0,0,1,71.69,98C69.82,95.07,67,92.48,69,88.2c1.26-2.81-3-8-6.16-8A12.45,12.45,0,0,1,58,79.62C54.16,78,52.78,75,54.29,71.21a5.52,5.52,0,0,0,.26-.55c2.34-9.18,9-9.25,16.78-7,1.71.5,3.22,1.17,5-.46-3.06-.64-4.89-3.18-8.13-3.48-2.53-.23-4.46,1-6.72,1.27-1,.11-2,.62-2.8-.31s0-1.91.38-2.79a4.44,4.44,0,0,1,1.13-1.76c2.06-1.47,4.43-2.46,4.93-5.49.18-1.11,1.69-1.53,3-1.51A11.29,11.29,0,0,1,73,50.52c1.18.6,2.32.54,3-.46s-.56-1.61-1.17-2.14a32.71,32.71,0,0,0-19-7.79,37.14,37.14,0,0,0-12.35.66c-.57.14-1.15.59-1.68,0s.06-1.29.25-1.91c1-3.26,3.21-4.36,6.61-4.39,7.24-.06,14.23.47,21,3.61A41.74,41.74,0,0,1,85,50.11a44,44,0,0,1,5.25,8.67A40.28,40.28,0,0,1,89,95.9a42.83,42.83,0,0,1-12.82,14.25c-12.53,8.66-26.76,10.34-40.6,4.34a42,42,0,0,1-11.65-7.55C14.28,98.1,8.46,82.54,10.36,68.79Z" transform="translate(149.19 -8.41)" style="fill:#e5e5e4"/><path d="M32.49,9.22A18.31,18.31,0,0,1,38.26,13a15.27,15.27,0,0,1,4.23,5.56c1.95,4.77.41,10.05-1.51,14.55-3,7.2-7.66,13.49-12,19.92-.79,1.17-1.81,1.46-2.66.19C20.74,45,14.65,37,12,27.11A14.16,14.16,0,0,1,13.8,16.27,16.51,16.51,0,0,1,18,11.61c2.75-2,4.93-3.1,8.43-3.19A15.94,15.94,0,0,1,32.49,9.22Zm-4.92,6A9.41,9.41,0,1,0,37,24.59v-.27C37,19.55,32.5,15.19,27.57,15.19Z" transform="translate(149.19 -8.41)" style="fill:#e5e5e5"/><path d="M9.65,78.32c1.32.12,1.06,1.15,1.24,2C13,90.32,16.2,99.71,24,106.88a42,42,0,0,0,20.13,10.25c.86.19,1.91-.07,2,1.27q-17.25,0-34.49,0c-1.69,0-2-.36-2-2C9.69,103.78,9.65,91.07,9.65,78.32Z" transform="translate(149.19 -8.41)" style="fill:#fff"/><path d="M57.64,118.46a1.2,1.2,0,0,1,1.12-1.2c13.64-2,23.51-9.49,30.21-21.32,1.89-3.31,3.59-6.77,3.9-10.69.07-.82.34-1.35,1.22-1.42v32.8c0,1.52-.34,1.88-1.86,1.87C80.72,118.42,69.18,118.46,57.64,118.46Z" transform="translate(149.19 -8.41)" style="fill:#fff"/><path d="M50.87,42.5c1.6.52,4.83-.12,5.06,2s-2.83,3-4.8,3.93c-1.18.55-5.35-1.69-5.9-2.9-.4-.88.08-1.36.74-1.68A10.65,10.65,0,0,1,50.87,42.5Z" transform="translate(149.19 -8.41)" style="fill:#e6e5e5"/><path d="M399.94,83.8l.11-.3a1.2,1.2,0,0,1,.33.13l-.09.3Z" transform="translate(149.19 -8.41)" style="fill:#fff"/></svg>