<svg id="Layer_1" data-name="Layer 1" xmlns="http://www.w3.org/2000/svg" viewBox="0 0 98.68 100"><title>icon-freedive</title><g id="icons"><path d="M59.43,45.27a47.76,47.76,0,0,0,46.2-35.69,26.58,26.58,0,0,1-9.47,1.88H96c-.68,0-1.36,0-2-.08-.48,0-1-.12-1.48-.2a49.11,49.11,0,0,0-8-.8c-4.52,0-7.79,1.08-12.59,4.07a12.29,12.29,0,0,1-1.24.68c-.2.08-.44.2-.68.28a12.06,12.06,0,0,1-1.44.52,24.21,24.21,0,0,1-4.79,1,6,6,0,0,1-.84.08,33.77,33.77,0,0,1-3.48.16A33.26,33.26,0,0,1,56,17c-.28,0-.56,0-.84-.08a24.21,24.21,0,0,1-4.79-1c-.48-.16-1-.32-1.44-.52-.24-.08-.44-.2-.68-.28A7.48,7.48,0,0,1,47,14.45c-3.72-2.39-6.35-3.47-9.43-3.91l-1.2-.12c-.6,0-1.24-.08-1.92-.08h-.08a60.34,60.34,0,0,0-7,.68l-1,.16a23.29,23.29,0,0,1-2.92.28H22c-.68,0-1.36-.08-2-.16-.4,0-.84-.12-1.28-.2a28.42,28.42,0,0,1-5.47-1.52A47.87,47.87,0,0,0,59.43,45.27Z" transform="translate(-10.11 -8.1)" style="fill:#fff"/><path d="M48.32,57.5c-.12-2.68,0-7.39,1.68-9.51A50.38,50.38,0,0,1,10.11,8.1a230.71,230.71,0,0,0,2,26.78c2.08,15.83,13.79,28,22.22,33.17a29.06,29.06,0,0,1,11,12.23A32.18,32.18,0,0,1,47,68.61v-.08l0-.08A38.86,38.86,0,0,0,48.32,57.5Z" transform="translate(-10.11 -8.1)" style="fill:#fff"/><path d="M61.47,58.94c.08-5.12.64-8.39,1.8-10.23h0l-.44,0h0c-.72,0-1.4.08-2.12.08H58.19c-.68,0-1.36,0-2-.08h-.08l-.44,0h0c1.16,1.84,1.72,5.11,1.8,10.23a38.24,38.24,0,0,0,1.4,9.47c.2.84.4,1.68.64,2.6.2-.92.4-1.8.64-2.6A40.07,40.07,0,0,0,61.47,58.94Z" transform="translate(-10.11 -8.1)" style="fill:#fff"/><path d="M68.9,48c1.72,2.12,1.8,6.83,1.68,9.51a37.57,37.57,0,0,0,1.24,11v0a32.51,32.51,0,0,1,1.72,11.75,28.57,28.57,0,0,1,11-12.23C93,62.9,104.67,50.71,106.75,34.88a239.87,239.87,0,0,0,2-26.78A50.43,50.43,0,0,1,68.9,48Z" transform="translate(-10.11 -8.1)" style="fill:#fff"/><path d="M58.67,81.6c-.32-11-3.08-13.27-3.24-22.14-.16-10.19-2.23-10.15-3.23-10.15s-2.12,2.91-1.88,8.55A39.79,39.79,0,0,1,49,69.57h0a29.72,29.72,0,0,0-1.56,12c.44,5.64.76,7.2.76,8.59a17,17,0,0,1-.48,3.48c-1.4,7.6-.12,14.43,5.67,14.43,4.32,0,6-3.44,6.08-7.83a27.36,27.36,0,0,0-.24-3.64C58.07,89.2,58.83,87,58.67,81.6Zm-5.32,24.78c-3.75,0-4.39-3.6-4.39-8s2-8,4.39-8,4.4,3.6,4.4,8S57.11,106.38,53.35,106.38Z" transform="translate(-10.11 -8.1)" style="fill:#fff"/><path d="M70.74,90.19c0-1.39.32-3,.76-8.59a30.43,30.43,0,0,0-1.56-12h0A39.94,39.94,0,0,1,68.58,57.9c.24-5.68-.84-8.55-1.88-8.55s-3.07,0-3.23,10.15c-.16,8.87-2.88,11.11-3.24,22.14-.16,5.36.6,7.6-.52,15a19.18,19.18,0,0,0-.24,3.68c.08,4.35,1.76,7.79,6.08,7.79,5.79,0,7.07-6.79,5.67-14.43A17.35,17.35,0,0,1,70.74,90.19Zm-5.23,16.19c-3.76,0-4.4-3.6-4.4-8s2-8,4.4-8,4.39,3.6,4.39,8-.64,8-4.39,8Z" transform="translate(-10.11 -8.1)" style="fill:#fff"/></g></svg>