<svg id="Layer_1" data-name="Layer 1" xmlns="http://www.w3.org/2000/svg" viewBox="0 0 109.89 48.31"><title>icon-safe</title><path d="M80.77,52.11a12.74,12.74,0,0,1-1.33-.41,16.41,16.41,0,0,1-5.51-4,85.5,85.5,0,0,1-10-12.29c-4.67-6.68-9.36-13.35-14.18-19.93-1.65-2.26-1-3.25,1.33-4.17a11.66,11.66,0,0,1,14,4Q72,25,78.77,34.71c3,4.36,7.36,6.07,12.19,4.76,5.38-1.46,8.46-4.84,8.8-9.67.37-5.48-2-10-7-11.81a12.11,12.11,0,0,0-11.34,1.4c-6.8,4.54-6.7,4.37-11.7-2-2.2-2.79-1.36-4.4,1-6.09,3.12-2.19,6.29-4.48,10-5.6,8.15-2.47,18-.33,24.18,5.53,4.19,4,7.37,9.28,7.69,15.15a26.85,26.85,0,0,1-5.33,17.14A25,25,0,0,1,97,50.9c-2.92,1.49-6.56,1.77-9.78,1.73A29.41,29.41,0,0,1,80.77,52.11Z" transform="translate(-2.72 -4.69)" style="fill:#e5e5e4"/><path d="M30.56,4.9A20.15,20.15,0,0,1,40,8.55c3.43,2.53,6,6,8.44,9.48C54,26,59.56,33.93,65.33,41.74c1.47,2,1.09,2.79-.88,3.75a11.68,11.68,0,0,1-14.67-3.72c-4.54-6.34-9.35-12.51-13.42-19.14-3.44-5.59-12.09-7-17-3.15C14.64,23.22,13.69,30.69,17.67,36c2.45,3.26,8.61,4.9,12.47,3a46.6,46.6,0,0,0,7.71-4.6c1.92-1.43,3-1,4,.82.18.31.36.63.57.92,1.25,1.79,3.13,3.59,4,5.6.55,1.24-.06,1.82-1,2.6-4.86,3.83-10.35,7.54-16.61,8.48s-12.92-2.21-17.66-6C1.29,38.83,0,23.55,7.73,13.72,12.76,7.3,22.13,3.82,30.56,4.9Z" transform="translate(-2.72 -4.69)" style="fill:#e5e5e4"/></svg>