<svg id="Layer_1" data-name="Layer 1" xmlns="http://www.w3.org/2000/svg" viewBox="0 0 219.43 119.47"><title>icon-spearFish-dark</title><path d="M219.43,25.46c0-.32-1.51-1.4-2-1.23-1,.33-1.87,1.35-2.81,2A81.51,81.51,0,0,1,207,31.71c-10,5.68-20.3,4.27-30.48.65-5.48-2-10.7-4.53-16.06-6.72-2.64-1.09-4.19-.18-3.89,2.6s.79,5.92,2.24,8.23c2.94,4.86,6.63,9.17,9.86,13.83,4.1,5.88,6.27,11.94.92,18.44,7.34,2.75,9.18,7.27,5.2,13,7.45,0,19.81-5.34,26.85-12.07C214.26,57.66,217.24,41.67,219.43,25.46Z" transform="translate(0 -0.01)" style="fill:#403f3f"/><path d="M158,95.88A2.09,2.09,0,0,0,156.9,95a4,4,0,0,0-2.07.5,179.39,179.39,0,0,1-17.56,6.5,93.48,93.48,0,0,1-9.94,2.13l-3.32.54c3.35,4.93,8.72,8.6,14,9.45a11.74,11.74,0,0,0,4.83-.14c7.47-1.69,16.5-8.93,17.91-16.16l-.54-.25A13.16,13.16,0,0,1,158,95.88Z" transform="translate(0 -0.01)" style="fill:#403f3f"/><path d="M112.56,40c3.59-3.81,6.9-7.42,10.29-11,5.7-6.12,11.4-12.24,17-18.47,1.61-1.81,2.58-4.22,3.84-6.41-.45-.24-.43-.4-.89-.64-10.9,11.31-21.64,22.66-32.59,34.14C111.3,38.54,111.69,39.19,112.56,40Z" transform="translate(0 -0.01)" style="fill:#403f3f"/><path d="M142,2.25c-4-.07-25.3,19.44-35,31.62.61.84,1.22,1.68,2.11,2.82C120,25.13,130.9,13.8,142,2.25Z" transform="translate(0 -0.01)" style="fill:#403f3f"/><path d="M71.42,76c2.19-2.29,4.3-4.6,6.6-7,.8-.86,1.7-1.79,2.51-2.74a7.86,7.86,0,0,0-1.36-.3,4.75,4.75,0,0,0-4.56,1.58C59.49,82.78,59.84,81.85,44.9,96.83l-6.26,5.89-5.31,5.2-4.62,4.55.59.43a23.24,23.24,0,0,1,2.6,1.92,3.49,3.49,0,0,0,1.44.81c.41.06.92,0,2-1.17,15.24-16,3.1-3.86,18.12-19.57Z" transform="translate(0 -0.01)" style="fill:#403f3f"/><path d="M82.71,68.13,36,117.71l2.78,1.77.28-.2,14.08-15.46C69.9,86,65.42,90.19,82.19,72.35,83.77,70.79,83.9,69.56,82.71,68.13Z" transform="translate(0 -0.01)" style="fill:#403f3f"/><path d="M122.35,60.43c0-.25-.18-.44-.22-.69A83.13,83.13,0,0,0,108,38.35c-2.88-3.2-5.51-4.86-8.66-5.37-.64-.1-1.3-.12-2-.16a54,54,0,0,0-6.23.16c-3.53.34-7,.78-10.64,1.27l-2.79.38,33.09,30Z" transform="translate(0 -0.01)" style="fill:#403f3f"/><path d="M38.36,78.3c2.63-9.67.51-17-6.66-23.42-2.8,3-5.28,7.1-3.79,11.73C29.37,71.4,32.67,75.07,38.36,78.3Z" transform="translate(0 -0.01)" style="fill:#403f3f"/><path d="M23,18.65c.29-2.36,3.52-4.4,6.33-3.87a5.73,5.73,0,0,1,4.27,3.47,5.74,5.74,0,0,0-4.34-3.56c-2.73-.53-6,1.43-6.32,3.78a3.68,3.68,0,0,0,.22,1.74A3.44,3.44,0,0,1,23,18.65Z" transform="translate(0 -0.01)" style="fill:#403f3f"/><path d="M27.9,23.64a5.89,5.89,0,0,1-4.66-3.43,5.66,5.66,0,0,0,4.66,3.53c3,.4,5.65-1.16,6-3.68a4,4,0,0,0-.26-1.81A3.85,3.85,0,0,1,33.83,20C33.51,22.48,30.9,24.12,27.9,23.64Z" transform="translate(0 -0.01)" style="fill:#403f3f"/><path d="M15,45.37a9.66,9.66,0,0,1-2.75-1A9,9,0,0,0,15,45.37Z" transform="translate(0 -0.01)" style="fill:#403f3f"/><path d="M175,76.67c-.37-2.88-2.13-4.81-4.82-6.07-2.92-1.38-4.67.74-6.74,1.73-8,3.93-16.4,6.8-25.42,6.26a43.36,43.36,0,0,1-25.41-9.8c-7.75-6.37-15.18-13.2-22.7-20C74.6,35.13,58.9,21.85,40.64,12.12A110.07,110.07,0,0,0,5.8.23C1.68-.43.8.23.25,4.39a16.81,16.81,0,0,0-.25,2C.26,24.92,6.59,41.16,17.9,55.65c2,2.55,4.27,4.82,6,6.67,2.06-3.56,4-7,6-10.29,1-1.57,2-1.34,3.25-.14C40.9,59,43.9,67.68,42,78.05l11.48,7.39C60.12,78.9,66.69,72.51,73.18,66.1c2.75-2.7,4.9-3.18,8.32-1.8C86,66.1,87,70.55,83.65,74.08l-5.59,6C74.37,84,70.77,87.85,66.4,92.36c8.52,2.61,16.1,5.4,23.93,7.16a105,105,0,0,0,41.45,1.11,84.19,84.19,0,0,0,39.85-18.26C173.55,80.75,175.35,79.3,175,76.67ZM29.3,14.69a5.74,5.74,0,0,1,4.34,3.56,4,4,0,0,1,.26,1.81c-.32,2.52-3,4.08-6,3.68a5.65,5.65,0,0,1-4.7-3.54A3.64,3.64,0,0,1,23,18.47C23.28,16.12,26.57,14.16,29.3,14.69Zm-6.14,30c-2.63.51-5.39,1.22-8.15.71a8.94,8.94,0,0,1-2.74-1c16-3.23,28.29-10.69,32.8-27.92L52.46,21c-5.05,13.9-15.4,21.09-29.3,23.66Z" transform="translate(0 -0.01)" style="fill:#403f3f"/><path d="M23.16,44.66c-2.62.5-5.41,1.21-8.14.71C17.77,45.89,20.53,45.16,23.16,44.66Z" transform="translate(0 -0.01)" style="fill:#403f3f"/></svg>