<svg id="Layer_1" data-name="Layer 1" xmlns="http://www.w3.org/2000/svg" viewBox="0 0 355.02 39.29"><title>logo</title><path d="M8.13,44.8V10.58H15.5q4.8,0,7.43,2.05c1.75,1.37,2.64,3.54,2.64,6.51A9.25,9.25,0,0,1,24,24.51a7.67,7.67,0,0,1-4.58,3.08,9.86,9.86,0,0,1,5.27,2.89A7.68,7.68,0,0,1,26.84,36a7.69,7.69,0,0,1-3.08,6.46,11.77,11.77,0,0,1-7.37,2.35Zm1.82-18h6.3a7.28,7.28,0,0,0,5.46-2.1,7.64,7.64,0,0,0,2.05-5.51q0-6.94-7.61-6.94H10Zm0,16.42h6.44a9.83,9.83,0,0,0,6.16-1.9A6.3,6.3,0,0,0,25,36a6.48,6.48,0,0,0-2.78-5.72,11.6,11.6,0,0,0-6.69-1.9H10Z" transform="translate(-8.13 -7.09)"/><path d="M33.28,44.8,48.44,9,63.6,44.8H61.68L55.46,30.15H41.41L35.2,44.8ZM42.1,28.53H54.78L48.9,14.69l-.46-1.55L48,14.69Z" transform="translate(-8.13 -7.09)"/><path d="M71.3,44.8V9.08L98.56,40.67l.92,1.25-.14-1.55V10.58h1.81v35.8L73.88,14.74,73,13.48l.17,1.58V44.8Z" transform="translate(-8.13 -7.09)"/><path d="M109.65,44.8V10.58h1.81V26.14l-.14,1.55.93-1.12,16.75-16h2.1L116.61,24.37,132.8,44.8h-2.1L115.44,25.5l-4,3.82V44.8Z" transform="translate(-8.13 -7.09)"/><path d="M139,40.84l1.27-1.32q3.81,4,8.27,4a9.22,9.22,0,0,0,6.07-2.12,6.78,6.78,0,0,0,2.58-5.53,6.08,6.08,0,0,0-.71-2.91,9.24,9.24,0,0,0-1.52-2.07,8.39,8.39,0,0,0-2.43-1.52c-1.39-.62-2.17-1-2.33-1l-2.52-.76q-7.32-2.22-7.6-8.17c0-.21,0-.42,0-.63a8.91,8.91,0,0,1,2-5.72c1.43-1.81,3.61-2.72,6.56-2.72a11.41,11.41,0,0,1,7.48,2.8L155,14.67A9.07,9.07,0,0,0,148.5,12a6.19,6.19,0,0,0-4.95,2.06,7.36,7.36,0,0,0-1.72,5,5.74,5.74,0,0,0,1.52,4.27,11.43,11.43,0,0,0,4.22,2.51l1.63.54,1.9.63c.37.12,1,.37,1.8.72.56.25,1.19.57,1.88,1a11.7,11.7,0,0,1,1.63,1.14,6.06,6.06,0,0,1,1.37,1.59,8.81,8.81,0,0,1,.84,1.91,7.62,7.62,0,0,1,.34,2.38,8.67,8.67,0,0,1-3,6.81,10.57,10.57,0,0,1-7.32,2.61A13.2,13.2,0,0,1,139,40.84Z" transform="translate(-8.13 -7.09)"/><path d="M181.5,44.8V10.58h7.37q4.8,0,7.43,2.05c1.75,1.37,2.64,3.54,2.64,6.51a9.25,9.25,0,0,1-1.57,5.37,7.67,7.67,0,0,1-4.58,3.08,9.86,9.86,0,0,1,5.27,2.89A7.68,7.68,0,0,1,200.21,36a7.69,7.69,0,0,1-3.08,6.46,11.77,11.77,0,0,1-7.37,2.35Zm1.82-18h6.3a7.28,7.28,0,0,0,5.46-2.1,7.64,7.64,0,0,0,2-5.51q0-6.94-7.61-6.94h-6.2V26.76Zm0,16.42h6.44a9.83,9.83,0,0,0,6.16-1.9A6.3,6.3,0,0,0,198.4,36a6.48,6.48,0,0,0-2.78-5.72,11.6,11.6,0,0,0-6.69-1.9h-5.61Z" transform="translate(-8.13 -7.09)"/><path d="M245.66,44.8,260.82,9,276,44.8h-1.92l-6.22-14.65h-14L247.58,44.8Zm8.81-16.27h12.68L261.28,14.7l-.46-1.55-.48,1.55Z" transform="translate(-8.13 -7.09)"/><path d="M283.67,44.8V10.58h7a12.52,12.52,0,0,1,4.34.83,9.43,9.43,0,0,1,4,2.94,7.56,7.56,0,0,1,1.77,5,9.3,9.3,0,0,1-1.87,5.88,8.75,8.75,0,0,1-5.34,3.08l7.69,16.45h-1.84l-7.58-16.23h-6.35V44.8ZM285.48,27h5a11,11,0,0,0,4.13-.72,5.8,5.8,0,0,0,2.62-1.86A9.2,9.2,0,0,0,298.55,22a8.8,8.8,0,0,0,.41-2.6,6.43,6.43,0,0,0-2.46-5,9,9,0,0,0-6-2.15h-5V27Z" transform="translate(-8.13 -7.09)"/><path d="M311.71,44.8V10.58h6.8A17.45,17.45,0,0,1,331,15.33a16.23,16.23,0,0,1,5.08,12.36,16.64,16.64,0,0,1-1.07,6,19.24,19.24,0,0,1-3.27,5.46,15.24,15.24,0,0,1-6,4.1,23.92,23.92,0,0,1-8.9,1.58Zm1.81-1.62h4.1a17,17,0,0,0,11.91-4.29,14.37,14.37,0,0,0,4.7-11.19,14.42,14.42,0,0,0-4.69-11.24,17.09,17.09,0,0,0-11.92-4.25h-4.1Z" transform="translate(-8.13 -7.09)"/><path d="M343.13,40.84l1.26-1.32q3.81,4,8.27,4a9.22,9.22,0,0,0,6.07-2.12,6.78,6.78,0,0,0,2.58-5.53A6.08,6.08,0,0,0,360.6,33a9.24,9.24,0,0,0-1.52-2.07,8.33,8.33,0,0,0-2.42-1.52c-1.4-.62-2.17-1-2.33-1l-2.52-.76q-7.32-2.22-7.6-8.17c0-.21,0-.42,0-.63a8.91,8.91,0,0,1,2-5.72c1.43-1.81,3.61-2.72,6.56-2.72a11.41,11.41,0,0,1,7.48,2.8l-1.12,1.49A9.07,9.07,0,0,0,352.68,12a6.19,6.19,0,0,0-4.95,2.06,7.36,7.36,0,0,0-1.72,5,5.74,5.74,0,0,0,1.52,4.27,11.43,11.43,0,0,0,4.22,2.51l1.63.54,1.9.63c.37.12,1,.37,1.8.72.56.25,1.19.57,1.88,1a12.36,12.36,0,0,1,1.64,1.14A6.06,6.06,0,0,1,362,31.46a8.81,8.81,0,0,1,.84,1.91,7.62,7.62,0,0,1,.34,2.38,8.67,8.67,0,0,1-3,6.81,10.57,10.57,0,0,1-7.32,2.61A13.24,13.24,0,0,1,343.13,40.84Z" transform="translate(-8.13 -7.09)"/><path d="M240.93,29.37a15.37,15.37,0,0,0-30.49-2.73,11.86,11.86,0,0,1,2.29-3.22,13.11,13.11,0,1,1,10.58,20.85,13.3,13.3,0,0,1-2-.15,15.12,15.12,0,0,0,3.89.59,18.88,18.88,0,0,0,7.07-1.52A15.35,15.35,0,0,0,240.93,29.37Z" transform="translate(-8.13 -7.09)" style="fill:#1babaa"/><path d="M236.43,31.17a13.11,13.11,0,0,0-23.69-7.74,11.69,11.69,0,1,1,8.25,20,11.81,11.81,0,0,1-2.16-.2,16,16,0,0,0,2.47.95,13.4,13.4,0,0,0,2,.15A13.14,13.14,0,0,0,236.43,31.17Z" transform="translate(-8.13 -7.09)" style="fill:#0c7c79"/><path d="M224.82,7.09A18.82,18.82,0,0,0,206,25.27a1.9,1.9,0,0,1,.26-.37,11.3,11.3,0,0,1,2.4-2.83c0-.05,0-.1,0-.15a2.62,2.62,0,0,1,2.62-2.62,2.25,2.25,0,0,1,.58.07c2.32-3.93,7.21-6.64,12.86-6.64a15.45,15.45,0,0,1,11.45,4.73,8.21,8.21,0,0,0-2-.79,15.36,15.36,0,0,1-2,26.53,18.82,18.82,0,0,0-7.44-36.11Z" transform="translate(-8.13 -7.09)" style="fill:#76ccd0"/><path d="M219.88,23.59a2.29,2.29,0,0,1,.17.87,2.46,2.46,0,0,1-2.49,2.42,2.53,2.53,0,0,1-1.73-.68,3.46,3.46,0,0,1,.22.31,2.62,2.62,0,0,0,4.32-2,2.44,2.44,0,0,0-.06-.55A1.75,1.75,0,0,1,219.88,23.59Z" transform="translate(-8.13 -7.09)" style="fill:#e7f5f4"/><path d="M213.88,30.12a2.46,2.46,0,0,1-2.49-2.34,3.34,3.34,0,0,1-1.56.74,4.07,4.07,0,0,1-.71.07,3.2,3.2,0,0,1-2.69-1.29h0a2,2,0,0,1-.35-1.12,2.12,2.12,0,0,1,.05-.44,2.15,2.15,0,0,1,.24-.59,1.66,1.66,0,0,1,.25-.34,3.28,3.28,0,0,1,.2-.31,1.8,1.8,0,0,1-.15-.73A1.92,1.92,0,0,1,208,22a1.79,1.79,0,0,1,0-.23,1.94,1.94,0,0,1,2-1.91,1.94,1.94,0,0,1,2-1.91,1.75,1.75,0,0,1,.4,0,2.62,2.62,0,0,1,2.22-1.2h.06a2.65,2.65,0,0,1,3.26-1.93,16.37,16.37,0,0,1,6.39-1.27,15.6,15.6,0,0,1,9.34,3c.23,0,.45.08.67.14a8.38,8.38,0,0,1,2,.79,15.47,15.47,0,0,0-11.45-4.73A16.69,16.69,0,0,0,218,14.1a2.84,2.84,0,0,0-.72-.1,2.75,2.75,0,0,0-2.69,2.19h-.06a2.74,2.74,0,0,0-2.33,1.3,2,2,0,0,0-.42,0,2.07,2.07,0,0,0-2.07,2.07,2.07,2.07,0,0,0-2.07,2.07,2.11,2.11,0,0,0,0,.25,2.06,2.06,0,0,0-1.35,1.94,2.15,2.15,0,0,0,.16.8l-.21.34a3.09,3.09,0,0,0-.26.37,2.39,2.39,0,0,0-.26.64,2.42,2.42,0,0,0-.06.48,2.23,2.23,0,0,0,.36,1.21h0A3.34,3.34,0,0,0,208.88,29a4.42,4.42,0,0,0,.74-.07,3.47,3.47,0,0,0,1.64-.8,2.62,2.62,0,0,0,5.23-.08,2.58,2.58,0,0,0-.31-1.23,2.4,2.4,0,0,1,.18.89A2.44,2.44,0,0,1,213.88,30.12Z" transform="translate(-8.13 -7.09)" style="fill:#e7f5f4"/><path d="M224.21,22.63a2.48,2.48,0,0,1-2.42,1.83h-.24a2.67,2.67,0,0,0,.64.08,2.61,2.61,0,0,0,2.52-1.94,2,2,0,0,1-.43,0Z" transform="translate(-8.13 -7.09)" style="fill:#e7f5f4"/><path d="M227.62,18.51a2.06,2.06,0,0,1-1.22,1.86,1.34,1.34,0,0,1,0,.2,2.07,2.07,0,0,1-1.51,2A2.23,2.23,0,0,0,227,20.31a1.7,1.7,0,0,0,0-.22,2.23,2.23,0,0,0,1.28-2,2.33,2.33,0,0,0-.07-.53c-.24.1-.48.21-.71.33A2,2,0,0,1,227.62,18.51Z" transform="translate(-8.13 -7.09)" style="fill:#e7f5f4"/><path d="M224.72,22.55s0,0,0,.05l.19-.05h-.18Z" transform="translate(-8.13 -7.09)" style="fill:#d4edf2"/><path d="M232.14,16.4a9.22,9.22,0,0,1,1.4.12,15.53,15.53,0,0,0-9.34-3,16.37,16.37,0,0,0-6.39,1.27,2.65,2.65,0,0,0-3.26,1.93h-.06a2.62,2.62,0,0,0-2.22,1.2,1.75,1.75,0,0,0-.4,0,1.94,1.94,0,0,0-2,1.91,1.94,1.94,0,0,0-2,1.91,1.79,1.79,0,0,0,0,.23,1.92,1.92,0,0,0-1.29,1.79,1.77,1.77,0,0,0,.15.73l-.2.31c-.09.11-.17.22-.25.34a1.88,1.88,0,0,0-.24.59,2.12,2.12,0,0,0-.05.44,2.06,2.06,0,0,0,.35,1.12h0a3.23,3.23,0,0,0,2.69,1.29,3.35,3.35,0,0,0,.71-.07,3.29,3.29,0,0,0,1.56-.74,2.49,2.49,0,0,0,5-.08,2.25,2.25,0,0,0-.18-.89,2.75,2.75,0,0,0-.26-.4l.11.1a2.18,2.18,0,0,0-.22-.31,2.53,2.53,0,0,0,1.73.68A2.45,2.45,0,0,0,220,24.46a2.29,2.29,0,0,0-.17-.87,2.19,2.19,0,0,0,.42.38c0-.13-.07-.26-.11-.39a2.64,2.64,0,0,0,1.37.86h.24a2.48,2.48,0,0,0,2.42-1.83h.08a2,2,0,0,0,.43,0s0,0,0,0h.18a2.08,2.08,0,0,0,1.51-2,1.34,1.34,0,0,0,0-.2,2.06,2.06,0,0,0,1.22-1.86,1.83,1.83,0,0,0-.1-.62c.23-.12.47-.23.71-.33l0-.15A8.33,8.33,0,0,1,232.14,16.4Z" transform="translate(-8.13 -7.09)" style="fill:#d1ecec"/></svg>